<?xml version="1.0" standalone="no"?>
<!DOCTYPE svg PUBLIC "-//W3C//DTD SVG 20010904//EN"
 "http://www.w3.org/TR/2001/REC-SVG-20010904/DTD/svg10.dtd">
<svg version="1.0" xmlns="http://www.w3.org/2000/svg"
 width="233.000000pt" height="217.000000pt" viewBox="0 0 233.000000 217.000000"
 preserveAspectRatio="xMidYMid meet">

<g transform="translate(0.000000,217.000000) scale(0.100000,-0.100000)"
fill="#000000" stroke="none">
<path d="M1386 1983 c-3 -32 -9 -146 -13 -254 l-6 -196 -246 -9 c-135 -5 -428
-9 -651 -9 l-404 0 2 -300 c1 -165 2 -319 2 -342 0 -31 4 -43 14 -43 25 0 73
-49 117 -118 50 -79 55 -83 88 -70 28 11 489 -5 651 -22 47 -5 146 -12 220
-15 74 -3 147 -8 163 -10 18 -3 27 0 27 9 0 10 -28 15 -110 21 -82 5 -110 10
-110 20 0 7 43 53 96 102 70 64 103 88 123 88 22 0 26 -5 29 -32 2 -20 -2 -32
-11 -35 -16 -4 -110 -108 -104 -115 3 -2 26 18 52 46 69 74 91 67 35 -11 -17
-23 -27 -44 -24 -47 3 -3 11 2 18 12 7 9 15 17 18 17 5 0 -18 -290 -26 -335
-5 -27 0 -38 39 -79 25 -27 45 -55 45 -63 0 -21 51 -93 66 -93 7 0 32 25 54
55 45 61 163 186 330 350 61 61 132 137 157 170 66 88 226 275 235 275 17 0 6
38 -34 122 -24 49 -51 91 -61 94 -9 3 -36 33 -58 66 -23 33 -72 93 -108 132
-70 74 -283 325 -361 425 -69 89 -221 251 -235 251 -7 0 -15 -22 -19 -57z
m174 -168 c29 -38 101 -121 161 -185 59 -63 160 -180 224 -260 65 -80 133
-162 151 -183 19 -20 34 -41 34 -45 0 -14 -46 -66 -471 -532 -171 -187 -264
-278 -274 -268 -2 2 0 46 5 98 24 248 30 390 18 409 -10 17 -28 20 -142 25
-342 14 -952 26 -1048 20 l-108 -7 0 300 c0 267 2 302 16 307 9 3 210 1 448
-5 358 -9 614 -8 801 4 26 2 31 7 38 42 4 22 8 131 8 242 l1 203 43 -48 c23
-26 66 -78 95 -117z m-163 -77 c-2 -13 -4 -5 -4 17 -1 22 1 32 4 23 2 -10 2
-28 0 -40z m824 -701 c10 -23 8 -36 -8 -79 -11 -29 -25 -54 -31 -56 -7 -2 -4
16 8 44 12 26 19 55 17 63 -1 9 -18 -25 -36 -76 -21 -58 -44 -101 -62 -119
-16 -15 -29 -23 -29 -18 0 6 18 61 40 123 22 61 40 122 40 134 -1 12 -25 -52
-55 -142 -29 -90 -59 -169 -66 -175 -17 -16 -6 27 47 171 41 115 52 154 38
141 -6 -7 -85 -239 -110 -325 -14 -47 -68 -123 -79 -111 -11 11 40 150 96 261
32 64 55 117 51 117 -15 0 -132 -259 -149 -330 -12 -48 -26 -79 -50 -107 -28
-31 -33 -34 -27 -14 4 16 3 21 -5 17 -6 -4 -11 -17 -11 -29 0 -15 -32 -53 -97
-117 -54 -52 -136 -134 -182 -182 -46 -49 -85 -88 -86 -88 -2 0 -6 7 -9 16 -7
19 25 117 65 197 17 32 28 61 26 64 -7 6 -73 -133 -88 -185 -8 -27 -16 -39
-22 -33 -11 11 5 64 39 133 13 25 20 48 15 50 -11 4 248 274 260 270 5 -1 9 5
9 14 0 9 46 69 102 133 56 64 129 148 162 186 33 39 75 85 94 104 l34 34 23
-29 c13 -16 29 -41 36 -57z m-1761 -183 c0 -9 -164 -184 -172 -184 -22 0 -1
31 59 92 37 38 63 68 57 68 -15 0 -144 -135 -144 -152 -1 -22 -29 36 -30 61 0
13 14 37 35 58 20 20 34 40 33 45 -2 6 -22 -10 -45 -35 -23 -25 -44 -42 -47
-39 -14 13 -3 32 33 59 34 25 47 28 130 31 50 1 91 0 91 -4z m242 1 c9 -4 -11
-31 -59 -82 -40 -42 -75 -85 -79 -95 -4 -12 -15 -18 -37 -18 -43 0 -77 10 -77
22 0 20 160 168 182 168 18 0 8 -15 -57 -80 -75 -76 -92 -105 -46 -80 12 6 18
16 15 22 -4 7 23 40 67 79 41 38 75 68 76 69 1 0 7 -2 15 -5z m338 -1 c0 -3
-36 -45 -80 -92 -44 -48 -80 -91 -80 -97 1 -5 10 1 21 15 41 50 111 121 144
146 28 21 42 25 85 22 l52 -3 -59 -65 c-93 -103 -93 -113 0 -16 57 59 90 87
102 85 15 -3 6 -16 -39 -59 -32 -30 -72 -73 -89 -95 -17 -22 12 2 65 53 66 63
103 92 119 92 20 0 8 -16 -76 -101 l-100 -100 -144 5 c-79 3 -146 7 -148 10
-3 2 32 43 77 90 46 47 78 86 73 86 -8 0 -147 -145 -164 -172 -4 -6 -26 -7
-53 -3 -42 7 -46 10 -40 29 9 28 59 85 101 115 32 23 42 41 25 41 -11 0 -123
-117 -146 -152 -10 -16 -27 -28 -38 -28 -16 0 -18 3 -9 13 6 8 8 16 6 19 -3 3
29 37 71 77 42 39 71 71 64 71 -15 0 -144 -125 -161 -156 -7 -13 -18 -24 -26
-24 -31 0 -7 39 72 117 l84 83 146 0 c80 0 145 -3 145 -6z m-875 -14 c-3 -5
-10 -10 -16 -10 -5 0 -9 5 -9 10 0 6 7 10 16 10 8 0 12 -4 9 -10z m45 -15
c-26 -28 -40 -32 -40 -12 0 19 21 37 44 37 18 0 18 -1 -4 -25z m229 -62 c-84
-88 -109 -106 -109 -81 0 18 158 168 178 168 9 0 -19 -36 -69 -87z m86 21
c-36 -36 -73 -77 -82 -90 -14 -23 -63 -35 -63 -16 0 27 163 171 193 172 13 0
-2 -20 -48 -66z m940 -466 c-14 -29 -25 -59 -25 -65 0 -7 -4 -13 -10 -13 -14
0 -13 15 5 57 14 32 42 73 51 73 2 0 -8 -24 -21 -52z"/>
<path d="M2185 1060 c-12 -19 -66 -183 -63 -191 2 -4 20 39 40 96 33 96 40
122 23 95z"/>
<path d="M1938 777 c-59 -134 -91 -222 -76 -207 3 3 24 50 46 105 22 55 56
135 76 178 19 42 32 77 28 77 -4 0 -37 -69 -74 -153z"/>
<path d="M1890 738 c-32 -68 -61 -134 -64 -148 l-6 -25 12 25 c6 14 34 70 60
125 57 117 69 145 62 145 -3 0 -31 -55 -64 -122z"/>
<path d="M1861 733 c-47 -95 -129 -296 -113 -278 5 6 20 39 34 75 26 66 78
181 104 232 8 16 12 28 9 28 -2 0 -18 -26 -34 -57z"/>
<path d="M1765 603 c-62 -137 -99 -237 -86 -229 5 3 21 40 36 83 15 43 49 122
76 176 27 53 45 97 40 97 -5 0 -35 -57 -66 -127z"/>
<path d="M1720 584 c-50 -111 -102 -245 -97 -251 3 -2 11 13 18 34 6 21 36 92
66 157 29 66 51 121 49 124 -3 2 -19 -27 -36 -64z"/>
<path d="M1801 529 c-6 -18 -11 -39 -11 -48 1 -9 8 4 16 27 9 24 13 46 11 48
-3 3 -10 -9 -16 -27z"/>
<path d="M1662 521 c-10 -17 -21 -29 -23 -26 -9 8 -75 -117 -113 -213 -21 -52
-36 -96 -33 -98 2 -2 14 24 27 58 28 78 109 242 116 235 3 -3 -1 -18 -10 -35
-29 -55 -77 -185 -73 -196 2 -6 14 18 26 54 12 36 41 106 65 155 44 90 53 124
18 66z"/>
<path d="M292 787 c-49 -50 -64 -77 -42 -77 6 0 10 5 10 11 0 5 23 35 51 65
67 70 50 71 -19 1z"/>
<path d="M843 782 c-34 -31 -69 -69 -78 -84 -9 -15 20 9 65 53 44 45 80 83 78
84 -2 2 -31 -22 -65 -53z"/>
<path d="M1039 773 c-39 -37 -75 -77 -81 -88 -6 -11 14 4 43 34 29 29 70 66
91 82 22 15 34 30 28 34 -6 4 -42 -24 -81 -62z"/>
<path d="M1267 733 c-42 -47 -75 -89 -72 -92 4 -3 10 0 14 7 4 7 35 41 67 75
71 74 89 97 78 97 -5 0 -44 -39 -87 -87z"/>
</g>
</svg>
