<?xml version="1.0" standalone="no"?>
<!DOCTYPE svg PUBLIC "-//W3C//DTD SVG 20010904//EN"
 "http://www.w3.org/TR/2001/REC-SVG-20010904/DTD/svg10.dtd">
<svg version="1.0" xmlns="http://www.w3.org/2000/svg"
 width="512.000000pt" height="512.000000pt" viewBox="0 0 512.000000 512.000000"
 preserveAspectRatio="xMidYMid meet">

<g transform="translate(0.000000,512.000000) scale(0.100000,-0.100000)"
fill="#000000" stroke="none">
<path d="M2417 4699 c-200 -68 -320 -252 -303 -464 l6 -80 -638 -637 -637
-637 -290 -3 -290 -3 -57 -27 c-73 -34 -142 -103 -176 -176 l-27 -57 0 -980 0
-980 22 -48 c30 -63 106 -143 165 -173 26 -13 78 -28 115 -34 93 -13 4413 -13
4506 0 37 6 89 21 115 34 59 30 135 110 165 173 l22 48 0 980 0 980 -27 57
c-34 73 -103 142 -176 176 l-57 27 -291 3 -290 3 -635 635 -634 634 0 113 c-1
91 -5 122 -23 167 -53 132 -157 232 -279 270 -87 27 -207 26 -286 -1z m224
-302 c128 -85 56 -282 -97 -264 -141 15 -182 194 -61 267 45 28 115 26 158 -3z
m-181 -556 c100 -23 206 -10 301 38 l56 28 519 -513 519 -513 -1295 0 -1295 0
519 513 519 513 56 -28 c31 -15 76 -33 101 -38z m2344 -1279 c15 -17 16 -93
14 -933 l-3 -913 -25 -13 c-37 -19 -4423 -19 -4460 0 l-25 13 -3 913 c-2 840
-1 916 14 933 17 17 97 18 2244 18 2147 0 2227 -1 2244 -18z"/>
<path d="M814 2055 c-34 -7 -81 -23 -105 -35 -68 -35 -152 -122 -190 -198 -33
-64 -34 -71 -34 -183 0 -113 1 -116 38 -191 45 -91 112 -157 207 -202 60 -29
73 -31 170 -31 99 0 110 2 172 33 84 41 138 99 138 148 0 46 -14 70 -50 89
-45 23 -74 18 -121 -21 -54 -45 -77 -54 -138 -54 -66 0 -147 43 -185 98 -24
33 -31 56 -34 106 -5 76 9 126 51 172 71 81 185 102 284 51 70 -36 97 -35 139
7 38 38 43 70 19 116 -19 37 -119 87 -200 100 -74 12 -85 12 -161 -5z"/>
<path d="M1375 2061 c-11 -5 -29 -19 -40 -31 -19 -21 -20 -38 -23 -374 -2
-193 0 -362 3 -374 3 -13 18 -35 32 -48 25 -23 31 -24 180 -24 l155 0 29 29
c19 20 29 40 29 60 0 78 -47 111 -159 111 l-71 0 0 295 0 295 -27 30 c-30 32
-75 45 -108 31z"/>
<path d="M2082 2055 c-104 -23 -197 -87 -262 -181 -79 -114 -93 -288 -33 -417
42 -88 117 -163 208 -208 67 -32 75 -34 181 -34 107 0 112 1 186 38 249 122
319 428 150 649 -96 126 -271 189 -430 153z m198 -215 c97 -50 146 -160 116
-263 -30 -103 -113 -167 -218 -167 -197 0 -301 227 -173 378 65 78 182 100
275 52z"/>
<path d="M2892 2052 c-110 -40 -176 -125 -175 -230 0 -124 49 -177 223 -246
68 -28 135 -60 149 -72 25 -22 25 -24 11 -51 -37 -67 -146 -63 -241 8 -66 49
-108 52 -150 10 -23 -23 -29 -39 -29 -70 0 -34 6 -47 39 -80 21 -21 69 -53
106 -72 86 -42 210 -52 296 -24 77 26 152 103 174 180 44 151 -32 256 -245
341 -66 26 -124 52 -130 59 -15 18 -1 45 27 56 44 17 87 9 160 -27 67 -33 76
-35 108 -24 44 15 69 51 68 99 -3 107 -245 195 -391 143z"/>
<path d="M3493 2056 c-61 -28 -63 -38 -63 -416 0 -376 1 -385 61 -415 25 -13
60 -16 194 -13 157 3 164 4 189 27 47 44 44 112 -8 153 -17 14 -42 18 -128 18
l-108 0 0 65 0 65 95 0 c90 0 96 1 127 29 27 24 33 36 33 71 0 35 -6 47 -33
71 -31 28 -37 29 -128 29 l-95 0 3 63 3 62 113 5 c105 5 115 7 133 29 40 50
34 109 -15 145 -25 19 -44 21 -184 23 -118 2 -165 -1 -189 -11z"/>
<path d="M4063 2050 c-12 -5 -30 -21 -40 -36 -16 -25 -18 -59 -21 -329 -4
-359 -1 -398 38 -437 28 -28 29 -28 157 -28 182 0 265 28 341 114 70 80 102
176 102 313 0 191 -78 325 -225 389 -30 14 -75 18 -185 21 -80 1 -155 -1 -167
-7z m304 -217 c54 -40 68 -78 68 -188 0 -159 -41 -216 -160 -223 l-65 -4 0
222 0 222 65 -4 c45 -3 73 -10 92 -25z"/>
</g>
</svg>
